<?xml version="1.0" encoding="utf-8"?>
<!DOCTYPE svg PUBLIC "-//W3C//DTD SVG 1.1//EN" "http://www.w3.org/Graphics/SVG/1.1/DTD/svg11.dtd">
<svg version="1.1" id="eye" xmlns="http://www.w3.org/2000/svg" xmlns:xlink="http://www.w3.org/1999/xlink" x="0px" y="0px"
	 width="256px" height="140.8px" viewBox="0 0 256 140.8" enable-background="new 0 0 256 140.8" xml:space="preserve">
<path id="lid" fill="#483A96" d="M254.321,65.261c-0.429-0.596-11.996-16.472-32.718-32.578C202.42,17.774,171.528,0,133.299,0
	c-0.002,0,0,0-0.002,0c-1.76,0-8.842,0-10.596,0c-0.002,0,0,0-0.002,0C84.475,0,53.578,17.774,34.396,32.683
	C13.674,48.789,2.107,64.665,1.678,65.261c-1.292,1.655-1.716,3.463-1.675,5.139c-0.041,1.676,0.383,3.482,1.675,5.141
	c0.43,0.6,11.996,16.475,32.719,32.576C53.58,123.025,84.475,140.8,122.699,140.8c0.002,0,0,0,0.002,0c1.754,0,8.836,0,10.596,0
	c0.002,0,0,0,0.002,0c38.23,0,69.121-17.773,88.305-32.684c20.725-16.105,32.291-31.98,32.721-32.576
	c1.295-1.658,1.717-3.467,1.676-5.145C256.038,68.726,255.616,66.917,254.321,65.261z M230.557,72.107
	c-0.385,0.529-39.082,53.074-98.104,53.074c-1.463,0-2.941-0.043-4.415-0.109v-0.004c-0.012,0.002-0.023,0.002-0.035,0.002
	c-0.01,0-0.024,0-0.037-0.002v0.004c-1.473,0.066-2.949,0.109-4.414,0.109c-59.021,0-97.721-52.545-98.104-53.074
	c-0.422-0.541-0.545-1.145-0.525-1.708c-0.02-0.561,0.104-1.164,0.525-1.705c0.385-0.53,39.082-53.074,98.104-53.074
	c1.465,0,2.941,0.043,4.414,0.107v0.004c0.013-0.002,0.025-0.002,0.037-0.002c0.012,0,0.023,0,0.035,0.002v-0.004
	c1.473-0.064,2.952-0.107,4.415-0.107c59.021,0,97.723,52.544,98.104,53.074c0.422,0.541,0.545,1.145,0.527,1.705
	C231.102,70.962,230.979,71.566,230.557,72.107z"/>
<ellipse id="iris_x5F_outer" fill="#483A96" cx="128" cy="70.4" rx="62.52" ry="60.188"/>
<path id="pupil" fill="#120021" d="M174.676,66.649c0,19.946-16.795,36.11-37.512,36.11c-20.715,0-37.512-16.164-37.512-36.11
	c0-19.944,16.795-36.113,37.512-36.113S174.676,46.705,174.676,66.649z"/>
<ellipse id="iris_x5F_inner" fill="#483A96" cx="155.493" cy="56.276" rx="37.51" ry="36.111"/>
<path id="sclera_x5F_left" fill="#120021" d="M65.481,70.399c0-20.992,11.171-39.465,28.097-50.235
	c-41.814,12.78-67.82,48.081-68.136,48.515c-0.422,0.541-0.545,1.145-0.526,1.706c-0.019,0.562,0.104,1.164,0.526,1.705
	c0.313,0.438,26.278,35.684,68.034,48.484C76.608,109.796,65.481,91.353,65.481,70.399z"/>
<path id="sclera_x5F_right" fill="#120021" d="M230.557,68.678c-0.313-0.435-26.314-35.733-68.133-48.514
	c16.924,10.771,28.096,29.243,28.096,50.235c0,20.952-11.127,39.396-27.99,50.175c41.752-12.81,67.715-48.05,68.027-48.484
	c0.422-0.541,0.545-1.146,0.525-1.707C231.102,69.823,230.979,69.219,230.557,68.678z"/>
</svg>
